<svg width="400.00000000000006" height="400.00000000000006" xmlns="http://www.w3.org/2000/svg">

 <g>
  <title>background</title>
  <rect fill="#8400bc" id="canvas_background" height="402" width="402" y="-1" x="-1"/>
 </g>
 <g>
  <title>Layer 1</title>
  <g stroke="null" id="svg_1">
   <path fill="#ffffff" id="svg_2" d="m328.253843,282.236159c-2.637129,-0.51878 -5.134957,1.157647 -5.668147,3.751545c-5.360722,26.428936 -26.155135,44.187528 -51.738653,44.187528c-24.15207,0 -45.373996,-15.851597 -52.588875,-38.428114l22.571714,0l0,-9.607029l-38.428114,0l0,38.428114l9.607029,0l0,-18.488727c10.418823,22.48525 33.216301,37.702784 58.838247,37.702784c30.281354,0 54.856133,-20.852056 61.153541,-51.882758c0.528387,-2.598701 -1.14804,-5.130153 -3.746741,-5.663343z"/>
   <path fill="#ffffff" id="svg_3" d="m327.29314,224.502721l0,20.698343c-10.807907,-21.394853 -32.20276,-35.108886 -56.446097,-35.108886c-29.344669,0 -55.437359,19.199647 -63.44962,46.694962c-0.739741,2.545863 0.720527,5.211813 3.271193,5.951554c2.550666,0.730134 5.216617,-0.725331 5.951554,-3.271193c6.715313,-23.042458 29.522399,-39.768295 54.226873,-39.768295c21.928043,0 41.127689,13.286521 49.620303,33.6246l-21.995292,0l0,9.607029l38.428114,0l0,-38.428114l-9.607029,0z"/>
   <path fill="#ffffff" id="svg_4" d="m183.874614,267.292426c2.353722,-19.060345 11.278652,-36.083999 24.459495,-48.75567c-4.102201,0.235372 -8.305276,0.413102 -12.623636,0.53319c-4.179057,0.129695 -8.358115,0.196944 -12.517958,0.196944c-4.174254,0 -8.367722,-0.067249 -12.556386,-0.201748c-35.262598,-0.965506 -63.363157,-5.946751 -83.595559,-13.051148c-9.510958,-3.203944 -17.652915,-6.979506 -23.940715,-11.297866l0,34.15779l0,2.401757l0,2.401757l0,6.19173c13.670802,14.271241 59.534756,27.43287 120.087857,27.43287c0.235372,0 0.456334,-0.009607 0.686903,-0.009607z"/>
   <path fill="#ffffff" id="svg_5" d="m171.832203,204.155034c1.565946,0.043232 3.127088,0.086463 4.717051,0.110481c2.190403,0.038428 4.404823,0.057642 6.638457,0.057642s4.448054,-0.019214 6.64326,-0.052839c1.58516,-0.024018 3.151105,-0.072053 4.717051,-0.110481c0.557208,-0.014411 1.124022,-0.024018 1.676426,-0.038428c54.053946,-1.724462 94.379449,-14.002244 107.05112,-27.226319l0,-6.196533l0,-2.401757l0,-2.401757l0,-34.15779c-23.378704,16.058148 -72.802063,24.550762 -120.087857,24.550762s-96.709153,-8.492613 -120.087857,-24.550762l0,34.15779l0,2.401757l0,2.401757l0,6.19173c12.671671,13.228878 52.997173,25.506661 107.05112,27.226319c0.557208,0.014411 1.124022,0.024018 1.68123,0.038428z"/>
   <path fill="#ffffff" id="svg_6" d="m303.275569,114.526261l0,-8.675147l0,-2.401757c0,-0.80699 -0.268997,-1.532321 -0.648474,-2.20001c-5.389543,-20.659915 -46.834264,-41.031619 -119.439383,-41.031619c-72.422585,0 -113.824075,20.27083 -119.381741,40.877907c-0.408299,0.706117 -0.706117,1.479482 -0.706117,2.353722l0,2.401757l0,8.675147c13.62757,14.223206 59.164886,27.35121 120.087857,27.35121s106.465091,-13.128005 120.087857,-27.35121z"/>
   <path fill="#ffffff" id="svg_7" d="m183.43269,282.140089c-0.08166,0 -0.158516,0 -0.244979,0c-59.304188,0 -100.230129,-11.000048 -120.087857,-24.983078l0,39.393621c0,0.778169 0.206551,1.513107 0.562011,2.166385c5.67295,23.513202 56.426882,41.065244 119.525846,41.065244c9.607029,0 18.877811,-0.45153 27.797937,-1.224896c-15.866008,-13.978227 -26.236795,-33.975257 -27.552958,-56.417275z"/>
  </g>
  <g id="svg_8"/>
  <g id="svg_9"/>
  <g id="svg_10"/>
  <g id="svg_11"/>
  <g id="svg_12"/>
  <g id="svg_13"/>
  <g id="svg_14"/>
  <g id="svg_15"/>
  <g id="svg_16"/>
  <g id="svg_17"/>
  <g id="svg_18"/>
  <g id="svg_19"/>
  <g id="svg_20"/>
  <g id="svg_21"/>
  <g id="svg_22"/>
 </g>
</svg>
